<svg xmlns="http://www.w3.org/2000/svg" xmlns:xlink="http://www.w3.org/1999/xlink" width="500" zoomAndPan="magnify" viewBox="0 0 375 149.999998" height="200" preserveAspectRatio="xMidYMid meet" version="1.0"><defs><g/></defs><g fill="#000000" fill-opacity="1"><g transform="translate(0.000003125, 116.917163)"><g><path d="M 45.375 0.65625 C 45.375 1.789062 45.003906 2.585938 44.265625 3.046875 C 43.523438 3.503906 42.65625 3.734375 41.65625 3.734375 C 40.863281 3.734375 40.078125 3.625 39.296875 3.40625 C 38.515625 3.1875 37.804688 2.898438 37.171875 2.546875 C 36.535156 2.203125 36.007812 1.800781 35.59375 1.34375 C 35.1875 0.882812 34.984375 0.394531 34.984375 -0.125 L 34.984375 -83.296875 C 31.972656 -82.898438 29.125 -82.046875 26.4375 -80.734375 C 23.757812 -79.429688 21.429688 -77.644531 19.453125 -75.375 C 17.472656 -73.113281 15.90625 -70.367188 14.75 -67.140625 C 13.59375 -63.921875 13.015625 -60.195312 13.015625 -55.96875 C 13.015625 -53.269531 13.296875 -50.835938 13.859375 -48.671875 C 14.429688 -46.515625 15.109375 -44.6875 15.890625 -43.1875 C 16.671875 -41.6875 17.453125 -40.519531 18.234375 -39.6875 C 19.023438 -38.863281 19.640625 -38.453125 20.078125 -38.453125 C 20.421875 -38.453125 20.664062 -38.601562 20.8125 -38.90625 C 20.96875 -39.207031 21.222656 -39.359375 21.578125 -39.359375 C 21.921875 -39.359375 22.15625 -39.140625 22.28125 -38.703125 C 22.414062 -38.265625 22.484375 -37.804688 22.484375 -37.328125 C 22.484375 -35.929688 22.203125 -34.59375 21.640625 -33.3125 C 21.078125 -32.03125 20.367188 -30.984375 19.515625 -30.171875 C 18.660156 -29.367188 17.710938 -28.859375 16.671875 -28.640625 C 15.628906 -28.421875 14.628906 -28.660156 13.671875 -29.359375 C 12.492188 -30.140625 11.238281 -31.335938 9.90625 -32.953125 C 8.570312 -34.566406 7.347656 -36.515625 6.234375 -38.796875 C 5.128906 -41.085938 4.21875 -43.671875 3.5 -46.546875 C 2.78125 -49.429688 2.421875 -52.570312 2.421875 -55.96875 C 2.421875 -60.675781 2.984375 -64.890625 4.109375 -68.609375 C 5.242188 -72.335938 6.757812 -75.597656 8.65625 -78.390625 C 10.550781 -81.179688 12.765625 -83.554688 15.296875 -85.515625 C 17.828125 -87.484375 20.488281 -89.078125 23.28125 -90.296875 C 26.070312 -91.515625 28.90625 -92.394531 31.78125 -92.9375 C 34.65625 -93.488281 37.398438 -93.765625 40.015625 -93.765625 C 40.710938 -93.765625 41.382812 -93.617188 42.03125 -93.328125 C 42.6875 -93.046875 43.253906 -92.65625 43.734375 -92.15625 C 44.222656 -91.65625 44.617188 -91.054688 44.921875 -90.359375 C 45.222656 -89.660156 45.375 -88.921875 45.375 -88.140625 Z M 45.375 0.65625 "/></g></g></g><g fill="#000000" fill-opacity="1"><g transform="translate(53.021802, 116.917163)"><g><path d="M 4.703125 -44.59375 C 4.703125 -45.851562 4.601562 -46.765625 4.40625 -47.328125 C 4.21875 -47.898438 4.125 -48.425781 4.125 -48.90625 C 4.125 -49.5625 4.472656 -50.09375 5.171875 -50.5 C 5.867188 -50.914062 6.695312 -51.125 7.65625 -51.125 C 9.875 -51.125 11.625 -50.546875 12.90625 -49.390625 C 14.195312 -48.242188 14.84375 -46.863281 14.84375 -45.25 L 14.84375 -39.234375 C 15.757812 -41.109375 16.75 -42.847656 17.8125 -44.453125 C 18.882812 -46.066406 20.039062 -47.472656 21.28125 -48.671875 C 22.519531 -49.867188 23.847656 -50.804688 25.265625 -51.484375 C 26.679688 -52.160156 28.21875 -52.5 29.875 -52.5 C 32.101562 -52.5 33.9375 -52.082031 35.375 -51.25 C 36.8125 -50.425781 37.941406 -49.359375 38.765625 -48.046875 C 39.597656 -46.742188 40.175781 -45.285156 40.5 -43.671875 C 40.832031 -42.054688 41 -40.488281 41 -38.96875 L 41 -11.25 C 41 -10.9375 41.019531 -10.441406 41.0625 -9.765625 C 41.101562 -9.097656 41.234375 -8.414062 41.453125 -7.71875 C 41.671875 -7.019531 42.007812 -6.40625 42.46875 -5.875 C 42.925781 -5.351562 43.59375 -5.09375 44.46875 -5.09375 C 45.8125 -5.09375 46.972656 -5.570312 47.953125 -6.53125 C 48.941406 -7.5 49.796875 -8.703125 50.515625 -10.140625 C 51.234375 -11.578125 51.820312 -13.132812 52.28125 -14.8125 C 52.738281 -16.488281 53.117188 -18.066406 53.421875 -19.546875 C 53.679688 -20.941406 54.113281 -21.953125 54.71875 -22.578125 C 55.332031 -23.210938 55.96875 -23.53125 56.625 -23.53125 C 57.144531 -23.53125 57.6875 -23.367188 58.25 -23.046875 C 58.820312 -22.722656 59.335938 -22.296875 59.796875 -21.765625 C 60.253906 -21.242188 60.625 -20.65625 60.90625 -20 C 61.1875 -19.351562 61.328125 -18.703125 61.328125 -18.046875 C 61.328125 -17.960938 61.328125 -17.851562 61.328125 -17.71875 C 61.328125 -17.582031 61.285156 -17.382812 61.203125 -17.125 C 60.628906 -14.90625 59.851562 -12.570312 58.875 -10.125 C 57.894531 -7.6875 56.628906 -5.441406 55.078125 -3.390625 C 53.535156 -1.347656 51.695312 0.347656 49.5625 1.703125 C 47.425781 3.054688 44.921875 3.734375 42.046875 3.734375 C 40.253906 3.734375 38.671875 3.394531 37.296875 2.71875 C 35.921875 2.039062 34.742188 1.132812 33.765625 0 C 32.785156 -1.132812 32.046875 -2.460938 31.546875 -3.984375 C 31.046875 -5.515625 30.796875 -7.128906 30.796875 -8.828125 L 30.796875 -36.03125 C 30.796875 -37.070312 30.773438 -38.050781 30.734375 -38.96875 C 30.691406 -39.882812 30.570312 -40.691406 30.375 -41.390625 C 30.175781 -42.085938 29.890625 -42.640625 29.515625 -43.046875 C 29.148438 -43.460938 28.640625 -43.671875 27.984375 -43.671875 C 27.023438 -43.671875 25.847656 -43.015625 24.453125 -41.703125 C 23.054688 -40.398438 21.679688 -38.703125 20.328125 -36.609375 C 18.984375 -34.523438 17.796875 -32.160156 16.765625 -29.515625 C 15.742188 -26.878906 15.101562 -24.234375 14.84375 -21.578125 L 14.84375 -2.03125 C 14.84375 -1.375 14.832031 -0.707031 14.8125 -0.03125 C 14.789062 0.644531 14.660156 1.253906 14.421875 1.796875 C 14.179688 2.335938 13.804688 2.796875 13.296875 3.171875 C 12.796875 3.546875 12.066406 3.734375 11.109375 3.734375 C 10.460938 3.734375 9.753906 3.65625 8.984375 3.5 C 8.222656 3.34375 7.523438 3.054688 6.890625 2.640625 C 6.265625 2.234375 5.742188 1.644531 5.328125 0.875 C 4.910156 0.113281 4.703125 -0.894531 4.703125 -2.15625 Z M 4.703125 -44.59375 "/></g></g></g><g fill="#000000" fill-opacity="1"><g transform="translate(101.336364, 116.917163)"><g><path d="M 12.296875 -18.375 C 11.941406 -16.976562 11.285156 -16.113281 10.328125 -15.78125 C 9.367188 -15.457031 8.421875 -15.492188 7.484375 -15.890625 C 6.546875 -16.285156 5.757812 -16.960938 5.125 -17.921875 C 4.5 -18.878906 4.316406 -19.921875 4.578125 -21.046875 C 5.234375 -24.015625 6.179688 -27.296875 7.421875 -30.890625 C 8.660156 -34.484375 9.890625 -38.070312 11.109375 -41.65625 C 10.460938 -42.65625 9.941406 -43.664062 9.546875 -44.6875 C 9.148438 -45.707031 8.953125 -46.785156 8.953125 -47.921875 C 8.953125 -49.054688 9.375 -50.242188 10.21875 -51.484375 C 11.070312 -52.734375 12.097656 -53.878906 13.296875 -54.921875 C 14.503906 -55.960938 15.75 -56.820312 17.03125 -57.5 C 18.320312 -58.175781 19.421875 -58.515625 20.328125 -58.515625 C 21.941406 -58.515625 23.148438 -57.96875 23.953125 -56.875 C 24.765625 -55.789062 25.171875 -54.332031 25.171875 -52.5 C 25.171875 -51.5 25.003906 -50.507812 24.671875 -49.53125 C 24.347656 -48.550781 23.988281 -47.632812 23.59375 -46.78125 C 23.207031 -45.925781 22.847656 -45.191406 22.515625 -44.578125 C 22.191406 -43.972656 22.007812 -43.585938 21.96875 -43.421875 C 23.539062 -40.628906 25.175781 -38.164062 26.875 -36.03125 C 28.570312 -33.894531 30.128906 -31.78125 31.546875 -29.6875 C 32.960938 -27.59375 34.128906 -25.367188 35.046875 -23.015625 C 35.960938 -20.660156 36.421875 -17.894531 36.421875 -14.71875 C 36.421875 -13.925781 36.363281 -13.113281 36.25 -12.28125 C 36.144531 -11.457031 35.984375 -10.675781 35.765625 -9.9375 C 37.335938 -10.238281 38.722656 -10.71875 39.921875 -11.375 C 41.117188 -12.03125 42.160156 -12.78125 43.046875 -13.625 C 43.941406 -14.476562 44.679688 -15.40625 45.265625 -16.40625 C 45.859375 -17.414062 46.351562 -18.460938 46.75 -19.546875 C 47.226562 -20.816406 47.707031 -21.734375 48.1875 -22.296875 C 48.664062 -22.859375 49.210938 -23.140625 49.828125 -23.140625 C 50.390625 -23.140625 50.960938 -22.953125 51.546875 -22.578125 C 52.140625 -22.210938 52.664062 -21.742188 53.125 -21.171875 C 53.582031 -20.609375 53.953125 -20.019531 54.234375 -19.40625 C 54.515625 -18.800781 54.65625 -18.257812 54.65625 -17.78125 C 54.65625 -17.125 54.476562 -16.335938 54.125 -15.421875 C 53.78125 -14.515625 53.3125 -13.582031 52.71875 -12.625 C 52.132812 -11.664062 51.472656 -10.738281 50.734375 -9.84375 C 49.992188 -8.945312 49.234375 -8.171875 48.453125 -7.515625 C 46.359375 -5.816406 43.894531 -4.390625 41.0625 -3.234375 C 38.226562 -2.078125 34.71875 -1.347656 30.53125 -1.046875 C 28.914062 0.347656 27.007812 1.492188 24.8125 2.390625 C 22.613281 3.285156 20.140625 3.734375 17.390625 3.734375 C 15.992188 3.734375 14.566406 3.554688 13.109375 3.203125 C 11.648438 2.859375 10.253906 2.410156 8.921875 1.859375 C 7.597656 1.316406 6.390625 0.71875 5.296875 0.0625 C 4.203125 -0.59375 3.332031 -1.242188 2.6875 -1.890625 C 1.03125 -3.460938 -0.0351562 -5.039062 -0.515625 -6.625 C -1.003906 -8.21875 -1.125 -9.644531 -0.875 -10.90625 C -0.632812 -12.175781 -0.171875 -13.210938 0.515625 -14.015625 C 1.210938 -14.828125 1.9375 -15.234375 2.6875 -15.234375 C 3.113281 -15.234375 3.796875 -15.046875 4.734375 -14.671875 C 5.671875 -14.304688 6.75 -13.828125 7.96875 -13.234375 C 9.195312 -12.648438 10.53125 -12.03125 11.96875 -11.375 C 13.40625 -10.71875 14.84375 -10.09375 16.28125 -9.5 C 17.71875 -8.914062 19.125 -8.4375 20.5 -8.0625 C 21.875 -7.695312 23.125 -7.515625 24.25 -7.515625 C 25 -8.390625 25.675781 -9.546875 26.28125 -10.984375 C 26.894531 -12.421875 27.203125 -13.988281 27.203125 -15.6875 C 27.203125 -17.78125 26.914062 -19.71875 26.34375 -21.5 C 25.78125 -23.289062 25.039062 -24.945312 24.125 -26.46875 C 23.207031 -28 22.171875 -29.425781 21.015625 -30.75 C 19.859375 -32.082031 18.691406 -33.335938 17.515625 -34.515625 C 16.472656 -31.953125 15.554688 -29.414062 14.765625 -26.90625 C 13.984375 -24.394531 13.160156 -21.550781 12.296875 -18.375 Z M 12.296875 -18.375 "/></g></g></g><g fill="#000000" fill-opacity="1"><g transform="translate(144.028394, 116.917163)"><g><path d="M -7.390625 -62.96875 C -6.390625 -62.875 -5.273438 -62.804688 -4.046875 -62.765625 C -3.003906 -62.679688 -1.738281 -62.628906 -0.25 -62.609375 C 1.226562 -62.585938 2.878906 -62.550781 4.703125 -62.5 L 4.703125 -85.1875 C 4.703125 -86.15625 4.625 -86.921875 4.46875 -87.484375 C 4.320312 -88.046875 4.171875 -88.488281 4.015625 -88.8125 C 3.867188 -89.144531 3.71875 -89.410156 3.5625 -89.609375 C 3.40625 -89.804688 3.328125 -90.015625 3.328125 -90.234375 C 3.328125 -90.492188 3.457031 -90.707031 3.71875 -90.875 C 3.988281 -91.050781 4.335938 -91.203125 4.765625 -91.328125 C 5.203125 -91.460938 5.671875 -91.5625 6.171875 -91.625 C 6.679688 -91.695312 7.175781 -91.734375 7.65625 -91.734375 C 9.875 -91.734375 11.625 -91.15625 12.90625 -90 C 14.195312 -88.84375 14.84375 -87.457031 14.84375 -85.84375 L 14.84375 -62.375 C 18.9375 -62.375 23.257812 -62.414062 27.8125 -62.5 C 32.375 -62.59375 36.941406 -62.75 41.515625 -62.96875 C 42.128906 -63.625 42.617188 -63.863281 42.984375 -63.6875 C 43.359375 -63.507812 43.597656 -63.09375 43.703125 -62.4375 C 43.816406 -61.78125 43.828125 -60.972656 43.734375 -60.015625 C 43.648438 -59.054688 43.476562 -58.128906 43.21875 -57.234375 C 42.957031 -56.347656 42.597656 -55.578125 42.140625 -54.921875 C 41.679688 -54.265625 41.171875 -53.9375 40.609375 -53.9375 C 35.242188 -53.8125 30.5 -53.738281 26.375 -53.71875 C 22.257812 -53.695312 18.414062 -53.6875 14.84375 -53.6875 L 14.84375 -11.25 C 14.84375 -9.070312 15.253906 -7.5 16.078125 -6.53125 C 16.910156 -5.570312 18.023438 -5.09375 19.421875 -5.09375 C 20.773438 -5.09375 21.941406 -5.570312 22.921875 -6.53125 C 23.898438 -7.5 24.75 -8.703125 25.46875 -10.140625 C 26.1875 -11.578125 26.773438 -13.132812 27.234375 -14.8125 C 27.691406 -16.488281 28.070312 -18.066406 28.375 -19.546875 C 28.632812 -20.941406 29.066406 -21.953125 29.671875 -22.578125 C 30.285156 -23.210938 30.921875 -23.53125 31.578125 -23.53125 C 32.097656 -23.53125 32.640625 -23.367188 33.203125 -23.046875 C 33.773438 -22.722656 34.289062 -22.296875 34.75 -21.765625 C 35.207031 -21.242188 35.578125 -20.65625 35.859375 -20 C 36.140625 -19.351562 36.28125 -18.703125 36.28125 -18.046875 C 36.28125 -17.960938 36.28125 -17.851562 36.28125 -17.71875 C 36.28125 -17.582031 36.238281 -17.382812 36.15625 -17.125 C 35.59375 -14.90625 34.816406 -12.570312 33.828125 -10.125 C 32.847656 -7.6875 31.582031 -5.441406 30.03125 -3.390625 C 28.488281 -1.347656 26.648438 0.347656 24.515625 1.703125 C 22.378906 3.054688 19.875 3.734375 17 3.734375 C 15.207031 3.734375 13.5625 3.457031 12.0625 2.90625 C 10.5625 2.363281 9.265625 1.492188 8.171875 0.296875 C 7.078125 -0.898438 6.222656 -2.4375 5.609375 -4.3125 C 5.003906 -6.1875 4.703125 -8.453125 4.703125 -11.109375 L 4.703125 -53.6875 C 3.222656 -53.6875 1.90625 -53.695312 0.75 -53.71875 C -0.40625 -53.738281 -1.375 -53.769531 -2.15625 -53.8125 C -3.070312 -53.851562 -3.878906 -53.894531 -4.578125 -53.9375 C -5.617188 -53.9375 -6.539062 -54.40625 -7.34375 -55.34375 C -8.15625 -56.28125 -8.722656 -57.316406 -9.046875 -58.453125 C -9.378906 -59.585938 -9.425781 -60.625 -9.1875 -61.5625 C -8.945312 -62.5 -8.347656 -62.96875 -7.390625 -62.96875 Z M -7.390625 -62.96875 "/></g></g></g><g fill="#000000" fill-opacity="1"><g transform="translate(168.283745, 116.917163)"><g><path d="M 42.5625 -5.09375 C 43.914062 -5.09375 45.082031 -5.570312 46.0625 -6.53125 C 47.039062 -7.5 47.890625 -8.703125 48.609375 -10.140625 C 49.328125 -11.578125 49.914062 -13.132812 50.375 -14.8125 C 50.832031 -16.488281 51.210938 -18.066406 51.515625 -19.546875 C 51.828125 -20.941406 52.273438 -21.953125 52.859375 -22.578125 C 53.453125 -23.210938 54.097656 -23.53125 54.796875 -23.53125 C 55.316406 -23.53125 55.847656 -23.367188 56.390625 -23.046875 C 56.929688 -22.722656 57.429688 -22.296875 57.890625 -21.765625 C 58.347656 -21.242188 58.71875 -20.65625 59 -20 C 59.289062 -19.351562 59.4375 -18.703125 59.4375 -18.046875 C 59.4375 -17.960938 59.4375 -17.851562 59.4375 -17.71875 C 59.4375 -17.582031 59.390625 -17.382812 59.296875 -17.125 C 58.734375 -14.90625 57.960938 -12.570312 56.984375 -10.125 C 56.003906 -7.6875 54.75 -5.441406 53.21875 -3.390625 C 51.695312 -1.347656 49.859375 0.347656 47.703125 1.703125 C 45.546875 3.054688 43.023438 3.734375 40.140625 3.734375 C 37.785156 3.734375 35.738281 3.226562 34 2.21875 C 32.257812 1.21875 30.882812 -0.109375 29.875 -1.765625 C 28.53125 -0.242188 26.910156 1.050781 25.015625 2.125 C 23.117188 3.195312 20.90625 3.734375 18.375 3.734375 C 15.757812 3.734375 13.457031 3.207031 11.46875 2.15625 C 9.488281 1.113281 7.820312 -0.3125 6.46875 -2.125 C 5.125 -3.9375 4.113281 -6.070312 3.4375 -8.53125 C 2.757812 -11 2.421875 -13.648438 2.421875 -16.484375 C 2.421875 -22.054688 3.3125 -27.066406 5.09375 -31.515625 C 6.882812 -35.960938 9.257812 -39.742188 12.21875 -42.859375 C 15.1875 -45.972656 18.578125 -48.359375 22.390625 -50.015625 C 26.203125 -51.671875 30.160156 -52.5 34.265625 -52.5 C 36.085938 -52.5 37.566406 -52 38.703125 -51 C 39.835938 -50 40.40625 -48.625 40.40625 -46.875 C 40.40625 -45.75 40.285156 -44.957031 40.046875 -44.5 C 39.804688 -44.039062 39.359375 -43.8125 38.703125 -43.8125 C 38.097656 -43.8125 37.46875 -43.851562 36.8125 -43.9375 C 36.15625 -44.019531 35.476562 -44.0625 34.78125 -44.0625 C 32.25 -44.0625 29.675781 -43.503906 27.0625 -42.390625 C 24.445312 -41.285156 22.082031 -39.585938 19.96875 -37.296875 C 17.851562 -35.015625 16.117188 -32.117188 14.765625 -28.609375 C 13.421875 -25.097656 12.75 -20.921875 12.75 -16.078125 C 12.75 -12.546875 13.421875 -9.832031 14.765625 -7.9375 C 16.117188 -6.039062 17.972656 -5.09375 20.328125 -5.09375 C 22.160156 -5.09375 23.6875 -5.78125 24.90625 -7.15625 C 26.125 -8.53125 27.109375 -10.15625 27.859375 -12.03125 L 27.859375 -32.6875 C 27.859375 -33.34375 27.820312 -33.890625 27.75 -34.328125 C 27.6875 -34.765625 27.625 -35.132812 27.5625 -35.4375 C 27.5 -35.738281 27.441406 -36.007812 27.390625 -36.25 C 27.347656 -36.488281 27.328125 -36.71875 27.328125 -36.9375 C 27.328125 -37.632812 27.664062 -38.191406 28.34375 -38.609375 C 29.019531 -39.023438 29.835938 -39.234375 30.796875 -39.234375 C 33.015625 -39.234375 34.773438 -38.65625 36.078125 -37.5 C 37.390625 -36.34375 38.046875 -34.957031 38.046875 -33.34375 L 38.046875 -11.25 C 38.046875 -10.507812 38.132812 -9.78125 38.3125 -9.0625 C 38.488281 -8.34375 38.75 -7.6875 39.09375 -7.09375 C 39.445312 -6.507812 39.914062 -6.03125 40.5 -5.65625 C 41.09375 -5.28125 41.78125 -5.09375 42.5625 -5.09375 Z M 42.5625 -5.09375 "/></g></g></g><g fill="#000000" fill-opacity="1"><g transform="translate(215.683024, 116.917163)"><g><path d="M 30.265625 -55.703125 C 31.921875 -55.703125 33.664062 -55.992188 35.5 -56.578125 C 37.332031 -57.171875 39.148438 -57.976562 40.953125 -59 C 42.765625 -60.03125 44.488281 -61.253906 46.125 -62.671875 C 47.757812 -64.085938 49.195312 -65.632812 50.4375 -67.3125 C 51.6875 -68.988281 52.679688 -70.753906 53.421875 -72.609375 C 54.160156 -74.460938 54.53125 -76.328125 54.53125 -78.203125 C 54.53125 -78.984375 54.390625 -79.804688 54.109375 -80.671875 C 53.828125 -81.546875 53.367188 -82.351562 52.734375 -83.09375 C 52.097656 -83.84375 51.253906 -84.46875 50.203125 -84.96875 C 49.160156 -85.46875 47.878906 -85.71875 46.359375 -85.71875 C 43.390625 -85.71875 40.566406 -85.019531 37.890625 -83.625 C 35.210938 -82.226562 32.71875 -80.332031 30.40625 -77.9375 C 28.09375 -75.539062 25.988281 -72.738281 24.09375 -69.53125 C 22.195312 -66.332031 20.582031 -62.921875 19.25 -59.296875 C 17.925781 -55.679688 16.90625 -51.957031 16.1875 -48.125 C 15.46875 -44.289062 15.109375 -40.5625 15.109375 -36.9375 C 15.109375 -32.800781 15.476562 -28.78125 16.21875 -24.875 C 16.957031 -20.976562 18.144531 -17.523438 19.78125 -14.515625 C 21.414062 -11.503906 23.5625 -9.09375 26.21875 -7.28125 C 28.875 -5.476562 32.144531 -4.578125 36.03125 -4.578125 C 38.863281 -4.578125 41.410156 -4.988281 43.671875 -5.8125 C 45.941406 -6.644531 47.882812 -7.550781 49.5 -8.53125 C 51.113281 -9.507812 52.351562 -10.421875 53.21875 -11.265625 C 54.09375 -12.117188 54.570312 -12.570312 54.65625 -12.625 C 55.226562 -13.582031 55.875 -14.144531 56.59375 -14.3125 C 57.3125 -14.488281 58.007812 -14.398438 58.6875 -14.046875 C 59.363281 -13.703125 59.984375 -13.171875 60.546875 -12.453125 C 61.109375 -11.734375 61.550781 -10.957031 61.875 -10.125 C 62.207031 -9.300781 62.351562 -8.472656 62.3125 -7.640625 C 62.269531 -6.816406 61.984375 -6.144531 61.453125 -5.625 C 61.367188 -5.539062 61.039062 -5.210938 60.46875 -4.640625 C 59.90625 -4.078125 59.097656 -3.378906 58.046875 -2.546875 C 57.003906 -1.722656 55.722656 -0.84375 54.203125 0.09375 C 52.679688 1.03125 50.957031 1.898438 49.03125 2.703125 C 47.113281 3.515625 44.988281 4.179688 42.65625 4.703125 C 40.332031 5.234375 37.816406 5.5 35.109375 5.5 C 30.316406 5.5 26.023438 4.492188 22.234375 2.484375 C 18.441406 0.484375 15.222656 -2.359375 12.578125 -6.046875 C 9.941406 -9.734375 7.925781 -14.191406 6.53125 -19.421875 C 5.144531 -24.648438 4.453125 -30.488281 4.453125 -36.9375 C 4.453125 -41.300781 4.90625 -45.769531 5.8125 -50.34375 C 6.726562 -54.914062 8.066406 -59.367188 9.828125 -63.703125 C 11.597656 -68.046875 13.75 -72.144531 16.28125 -76 C 18.8125 -79.863281 21.6875 -83.234375 24.90625 -86.109375 C 28.132812 -88.984375 31.6875 -91.257812 35.5625 -92.9375 C 39.445312 -94.613281 43.613281 -95.453125 48.0625 -95.453125 C 50.457031 -95.453125 52.703125 -95.082031 54.796875 -94.34375 C 56.890625 -93.601562 58.6875 -92.492188 60.1875 -91.015625 C 61.6875 -89.535156 62.875 -87.691406 63.75 -85.484375 C 64.625 -83.285156 65.0625 -80.726562 65.0625 -77.8125 C 65.0625 -75.0625 64.523438 -72.378906 63.453125 -69.765625 C 62.390625 -67.148438 60.960938 -64.675781 59.171875 -62.34375 C 57.378906 -60.007812 55.296875 -57.863281 52.921875 -55.90625 C 50.546875 -53.945312 48.039062 -52.257812 45.40625 -50.84375 C 42.769531 -49.425781 40.097656 -48.320312 37.390625 -47.53125 C 34.691406 -46.75 32.101562 -46.359375 29.625 -46.359375 C 27.96875 -46.359375 26.5625 -46.867188 25.40625 -47.890625 C 24.25 -48.921875 23.671875 -50.546875 23.671875 -52.765625 C 23.671875 -53.242188 23.703125 -53.734375 23.765625 -54.234375 C 23.828125 -54.734375 23.921875 -55.191406 24.046875 -55.609375 C 24.179688 -56.023438 24.347656 -56.363281 24.546875 -56.625 C 24.742188 -56.882812 24.953125 -57.015625 25.171875 -57.015625 C 25.390625 -57.015625 25.597656 -56.945312 25.796875 -56.8125 C 25.992188 -56.6875 26.253906 -56.535156 26.578125 -56.359375 C 26.898438 -56.179688 27.34375 -56.023438 27.90625 -55.890625 C 28.476562 -55.765625 29.265625 -55.703125 30.265625 -55.703125 Z M 30.265625 -55.703125 "/></g></g></g><g fill="#000000" fill-opacity="1"><g transform="translate(280.995954, 116.917163)"><g><path d="M 42.5625 -5.09375 C 43.914062 -5.09375 45.082031 -5.570312 46.0625 -6.53125 C 47.039062 -7.5 47.890625 -8.703125 48.609375 -10.140625 C 49.328125 -11.578125 49.914062 -13.132812 50.375 -14.8125 C 50.832031 -16.488281 51.210938 -18.066406 51.515625 -19.546875 C 51.828125 -20.941406 52.273438 -21.953125 52.859375 -22.578125 C 53.453125 -23.210938 54.097656 -23.53125 54.796875 -23.53125 C 55.316406 -23.53125 55.847656 -23.367188 56.390625 -23.046875 C 56.929688 -22.722656 57.429688 -22.296875 57.890625 -21.765625 C 58.347656 -21.242188 58.71875 -20.65625 59 -20 C 59.289062 -19.351562 59.4375 -18.703125 59.4375 -18.046875 C 59.4375 -17.960938 59.4375 -17.851562 59.4375 -17.71875 C 59.4375 -17.582031 59.390625 -17.382812 59.296875 -17.125 C 58.734375 -14.90625 57.960938 -12.570312 56.984375 -10.125 C 56.003906 -7.6875 54.75 -5.441406 53.21875 -3.390625 C 51.695312 -1.347656 49.859375 0.347656 47.703125 1.703125 C 45.546875 3.054688 43.023438 3.734375 40.140625 3.734375 C 37.785156 3.734375 35.738281 3.226562 34 2.21875 C 32.257812 1.21875 30.882812 -0.109375 29.875 -1.765625 C 28.53125 -0.242188 26.910156 1.050781 25.015625 2.125 C 23.117188 3.195312 20.90625 3.734375 18.375 3.734375 C 15.757812 3.734375 13.457031 3.207031 11.46875 2.15625 C 9.488281 1.113281 7.820312 -0.3125 6.46875 -2.125 C 5.125 -3.9375 4.113281 -6.070312 3.4375 -8.53125 C 2.757812 -11 2.421875 -13.648438 2.421875 -16.484375 C 2.421875 -22.054688 3.3125 -27.066406 5.09375 -31.515625 C 6.882812 -35.960938 9.257812 -39.742188 12.21875 -42.859375 C 15.1875 -45.972656 18.578125 -48.359375 22.390625 -50.015625 C 26.203125 -51.671875 30.160156 -52.5 34.265625 -52.5 C 36.085938 -52.5 37.566406 -52 38.703125 -51 C 39.835938 -50 40.40625 -48.625 40.40625 -46.875 C 40.40625 -45.75 40.285156 -44.957031 40.046875 -44.5 C 39.804688 -44.039062 39.359375 -43.8125 38.703125 -43.8125 C 38.097656 -43.8125 37.46875 -43.851562 36.8125 -43.9375 C 36.15625 -44.019531 35.476562 -44.0625 34.78125 -44.0625 C 32.25 -44.0625 29.675781 -43.503906 27.0625 -42.390625 C 24.445312 -41.285156 22.082031 -39.585938 19.96875 -37.296875 C 17.851562 -35.015625 16.117188 -32.117188 14.765625 -28.609375 C 13.421875 -25.097656 12.75 -20.921875 12.75 -16.078125 C 12.75 -12.546875 13.421875 -9.832031 14.765625 -7.9375 C 16.117188 -6.039062 17.972656 -5.09375 20.328125 -5.09375 C 22.160156 -5.09375 23.6875 -5.78125 24.90625 -7.15625 C 26.125 -8.53125 27.109375 -10.15625 27.859375 -12.03125 L 27.859375 -32.6875 C 27.859375 -33.34375 27.820312 -33.890625 27.75 -34.328125 C 27.6875 -34.765625 27.625 -35.132812 27.5625 -35.4375 C 27.5 -35.738281 27.441406 -36.007812 27.390625 -36.25 C 27.347656 -36.488281 27.328125 -36.71875 27.328125 -36.9375 C 27.328125 -37.632812 27.664062 -38.191406 28.34375 -38.609375 C 29.019531 -39.023438 29.835938 -39.234375 30.796875 -39.234375 C 33.015625 -39.234375 34.773438 -38.65625 36.078125 -37.5 C 37.390625 -36.34375 38.046875 -34.957031 38.046875 -33.34375 L 38.046875 -11.25 C 38.046875 -10.507812 38.132812 -9.78125 38.3125 -9.0625 C 38.488281 -8.34375 38.75 -7.6875 39.09375 -7.09375 C 39.445312 -6.507812 39.914062 -6.03125 40.5 -5.65625 C 41.09375 -5.28125 41.78125 -5.09375 42.5625 -5.09375 Z M 42.5625 -5.09375 "/></g></g></g><g fill="#000000" fill-opacity="1"><g transform="translate(328.39522, 116.917163)"><g><path d="M -7.390625 -62.96875 C -6.390625 -62.875 -5.273438 -62.804688 -4.046875 -62.765625 C -3.003906 -62.679688 -1.738281 -62.628906 -0.25 -62.609375 C 1.226562 -62.585938 2.878906 -62.550781 4.703125 -62.5 L 4.703125 -85.1875 C 4.703125 -86.15625 4.625 -86.921875 4.46875 -87.484375 C 4.320312 -88.046875 4.171875 -88.488281 4.015625 -88.8125 C 3.867188 -89.144531 3.71875 -89.410156 3.5625 -89.609375 C 3.40625 -89.804688 3.328125 -90.015625 3.328125 -90.234375 C 3.328125 -90.492188 3.457031 -90.707031 3.71875 -90.875 C 3.988281 -91.050781 4.335938 -91.203125 4.765625 -91.328125 C 5.203125 -91.460938 5.671875 -91.5625 6.171875 -91.625 C 6.679688 -91.695312 7.175781 -91.734375 7.65625 -91.734375 C 9.875 -91.734375 11.625 -91.15625 12.90625 -90 C 14.195312 -88.84375 14.84375 -87.457031 14.84375 -85.84375 L 14.84375 -62.375 C 18.9375 -62.375 23.257812 -62.414062 27.8125 -62.5 C 32.375 -62.59375 36.941406 -62.75 41.515625 -62.96875 C 42.128906 -63.625 42.617188 -63.863281 42.984375 -63.6875 C 43.359375 -63.507812 43.597656 -63.09375 43.703125 -62.4375 C 43.816406 -61.78125 43.828125 -60.972656 43.734375 -60.015625 C 43.648438 -59.054688 43.476562 -58.128906 43.21875 -57.234375 C 42.957031 -56.347656 42.597656 -55.578125 42.140625 -54.921875 C 41.679688 -54.265625 41.171875 -53.9375 40.609375 -53.9375 C 35.242188 -53.8125 30.5 -53.738281 26.375 -53.71875 C 22.257812 -53.695312 18.414062 -53.6875 14.84375 -53.6875 L 14.84375 -11.25 C 14.84375 -9.070312 15.253906 -7.5 16.078125 -6.53125 C 16.910156 -5.570312 18.023438 -5.09375 19.421875 -5.09375 C 20.773438 -5.09375 21.941406 -5.570312 22.921875 -6.53125 C 23.898438 -7.5 24.75 -8.703125 25.46875 -10.140625 C 26.1875 -11.578125 26.773438 -13.132812 27.234375 -14.8125 C 27.691406 -16.488281 28.070312 -18.066406 28.375 -19.546875 C 28.632812 -20.941406 29.066406 -21.953125 29.671875 -22.578125 C 30.285156 -23.210938 30.921875 -23.53125 31.578125 -23.53125 C 32.097656 -23.53125 32.640625 -23.367188 33.203125 -23.046875 C 33.773438 -22.722656 34.289062 -22.296875 34.75 -21.765625 C 35.207031 -21.242188 35.578125 -20.65625 35.859375 -20 C 36.140625 -19.351562 36.28125 -18.703125 36.28125 -18.046875 C 36.28125 -17.960938 36.28125 -17.851562 36.28125 -17.71875 C 36.28125 -17.582031 36.238281 -17.382812 36.15625 -17.125 C 35.59375 -14.90625 34.816406 -12.570312 33.828125 -10.125 C 32.847656 -7.6875 31.582031 -5.441406 30.03125 -3.390625 C 28.488281 -1.347656 26.648438 0.347656 24.515625 1.703125 C 22.378906 3.054688 19.875 3.734375 17 3.734375 C 15.207031 3.734375 13.5625 3.457031 12.0625 2.90625 C 10.5625 2.363281 9.265625 1.492188 8.171875 0.296875 C 7.078125 -0.898438 6.222656 -2.4375 5.609375 -4.3125 C 5.003906 -6.1875 4.703125 -8.453125 4.703125 -11.109375 L 4.703125 -53.6875 C 3.222656 -53.6875 1.90625 -53.695312 0.75 -53.71875 C -0.40625 -53.738281 -1.375 -53.769531 -2.15625 -53.8125 C -3.070312 -53.851562 -3.878906 -53.894531 -4.578125 -53.9375 C -5.617188 -53.9375 -6.539062 -54.40625 -7.34375 -55.34375 C -8.15625 -56.28125 -8.722656 -57.316406 -9.046875 -58.453125 C -9.378906 -59.585938 -9.425781 -60.625 -9.1875 -61.5625 C -8.945312 -62.5 -8.347656 -62.96875 -7.390625 -62.96875 Z M -7.390625 -62.96875 "/></g></g></g></svg>